<svg width="32" height="30" viewBox="0 0 32 30" fill="none" xmlns="http://www.w3.org/2000/svg">
<path fill-rule="evenodd" clip-rule="evenodd" d="M16 0C7.52835 0 0.666687 6.86167 0.666687 15.3333C0.666687 22.1183 5.05585 27.8492 11.1509 29.8808C11.9175 30.015 12.205 29.555 12.205 29.1525C12.205 28.7883 12.1859 27.5808 12.1859 26.2967C8.33335 27.0058 7.33669 25.3575 7.03002 24.495C6.85752 24.0542 6.11002 22.6933 5.45835 22.3292C4.92169 22.0417 4.15502 21.3325 5.43919 21.3133C6.64669 21.2942 7.50919 22.425 7.79669 22.885C9.17669 25.2042 11.3809 24.5525 12.2625 24.15C12.3967 23.1533 12.7992 22.4825 13.24 22.0992C9.82835 21.7158 6.26335 20.3933 6.26335 14.5283C6.26335 12.8608 6.85752 11.4808 7.83502 10.4075C7.68169 10.0242 7.14502 8.4525 7.98835 6.34417C7.98835 6.34417 9.27252 5.94167 12.205 7.91583C13.4317 7.57083 14.735 7.39833 16.0384 7.39833C17.3417 7.39833 18.645 7.57083 19.8717 7.91583C22.8042 5.9225 24.0884 6.34417 24.0884 6.34417C24.9317 8.4525 24.395 10.0242 24.2417 10.4075C25.2192 11.4808 25.8134 12.8417 25.8134 14.5283C25.8134 20.4125 22.2292 21.7158 18.8175 22.0992C19.3734 22.5783 19.8525 23.4983 19.8525 24.9358C19.8525 26.9867 19.8334 28.635 19.8334 29.1525C19.8334 29.555 20.1209 30.0342 20.8875 29.8808C26.9442 27.8492 31.3334 22.0992 31.3334 15.3333C31.3334 6.86167 24.4717 0 16 0Z" fill="white"/>
</svg>
